<?xml version="1.0" encoding="utf-8"?>
<!-- Generator: Adobe Illustrator 18.0.0, SVG Export Plug-In . SVG Version: 6.00 Build 0)  -->
<!DOCTYPE svg PUBLIC "-//W3C//DTD SVG 1.1//EN" "http://www.w3.org/Graphics/SVG/1.1/DTD/svg11.dtd">
<svg version="1.1" id="Layer_1" xmlns="http://www.w3.org/2000/svg" xmlns:xlink="http://www.w3.org/1999/xlink" x="0px" y="0px"
	 viewBox="0 0 2214.2 595.3" enable-background="new 0 0 2214.2 595.3" xml:space="preserve">
<path d="M829.5,279.1c0-35.2-38.7-55.4-106.3-55.4h-88.9v175.9h61.7V334h17.1l51.2,65.7H832l-56.9-72.5
	C810.7,317.9,829.5,301.3,829.5,279.1 M767.8,279.6c0,14.9-14.8,22.5-44.1,22.5h-27.6v-45.2h24.4
	C762.9,256.9,767.8,269.8,767.8,279.6"/>
<path d="M995.5,223.8l-25.8,35.7c-9.3,12.8-18.8,28.2-23.2,37.3c-4.4-9.7-14.9-25.7-23.3-37.3l-25.8-35.7h-68.7L914.9,334v65.7h61.7
	v-66.2l86.6-109.7H995.5z"/>
<path d="M1174.6,223.8h-59.2l-85.5,175.9h63.5l15.5-36.1h71.8l15.5,36.1h64L1175,224.6L1174.6,223.8z M1166.7,331.7h-43.9l8-18.9
	c5.4-12.4,10.8-27.3,13.7-36.8c3.3,10.1,9.4,26.2,14.1,37.3L1166.7,331.7z"/>
<path d="M1418.8,296.9c0,7.4,0.6,18.3,1.2,27.9c0.1,2.4,0.3,4.8,0.4,7c-6.3-9.5-15.8-22.3-22.9-31.6l-58.2-76.4h-61.4v175.9h56.5
	v-74.4c0-9.3-0.3-23.4-0.7-33.7c5.4,8.4,13.3,19.3,22,30.5l61,77.6h58.6V223.8h-56.5V296.9z"/>
<path d="M1581.7,223.8l-85.5,175.9h63.5l15.5-36.1h71.8l15.5,36.1h64l-85.5-175.9H1581.7z M1633,331.7h-43.9l8-18.9
	c5.4-12.4,10.8-27.3,13.7-36.8c3.3,10.1,9.4,26.2,14.1,37.3L1633,331.7z"/>
<rect x="1745.6" y="223.8" width="61.7" height="175.9"/>
<path d="M1995.6,327.2c35.6-9.3,54.3-25.8,54.3-48c0-35.2-38.7-55.4-106.2-55.4h-88.9v175.9h61.7V334h17l50.8,65.1l0.4,0.6h67.7
	L1995.6,327.2z M1988.2,279.6c0,14.9-14.8,22.5-44.1,22.5h-27.6v-45.2h24.4C1983.3,256.9,1988.2,269.8,1988.2,279.6"/>
<g>
	<path fill="#FDD000" d="M230.5,247.3c2.2,2.9-0.7,5.5-1.6,8.1c-9.2,13.8-12.4,29.5-18.5,44.3c-0.5,0.5-1.4,0.7-2,0.5
		c-1.6-1.2-1.6-3.1-1.4-4.8c1.2-16,5.5-31.1,12.3-45.4c1.6-2.3,4.3-4.9,7.8-4.4C228.3,245.9,229.5,246.4,230.5,247.3"/>
	<path fill="#FDD000" d="M254.6,251.5c1.2,5.3-2.6,9.6-4.3,14.3c-8.9,17.9-19.7,35.3-25,54.4c-0.3,0.6-0.6,1.4-1.3,1.7
		c-0.8,0.2-1.4-0.2-1.6-0.7c-1.8-7.6,0.3-15.5,2.2-22.7c5.1-16,11.3-32.4,19.9-47.3c1-0.8,1.2-1.4,2.4-1.8
		C250,249.2,253,249.4,254.6,251.5"/>
	<path fill="#FDD000" d="M280.6,252.5c2.4,1.8,1.2,5.2,0.2,7.4c-10.5,23.2-27.5,43.2-34.5,67.6c-1.9,5.2-3.2,10.5-4.8,15.7
		c-0.3,0.9-1.7,1-2.6,0.7c-0.9-2.2-0.7-5-0.7-7.4c2.2-19.6,6.9-38.6,16.4-55.6c4.3-8.5,8.5-16.2,13.1-24.5c1.3-2.4,3.4-4.5,6.6-5.2
		C276.6,251,278.9,251.6,280.6,252.5"/>
	<path fill="#FDD000" d="M309.3,253.7c1.7,2.8,0.1,5.9-0.7,8.6c-6.7,18.7-19.1,34.1-29.2,51.1c-8.6,14-14.2,29.5-19.9,44.6
		c-2,4.6-2.7,9.6-5.1,13.9c-0.2,0.5-0.8,0.2-1.2,0.3c-1.5-1.2-1.3-3-1.6-4.6c1.1-19,8.5-36.1,15.3-53.3c8.6-19.1,20.1-37.3,28-57.1
		c1.1-2.5,3.2-5.5,6.6-6.5C304.8,250.3,307.3,251.5,309.3,253.7"/>
</g>
<g>
	<path d="M405.3,222.1h104.9c52,0,73,24.9,73,44.2c0,10.5-3.3,19.5-9.8,27c-4.4,5-10.7,9-19.1,11.9c12.8,3.1,22.1,8.3,28.2,15.8
		c6,7.5,9,16.9,9,28.2c0,19.8-12.8,31.8-26.8,39.8c-12.3,7-30.3,10.7-58.3,10.7H405.3V222.1z M460.9,291.7h38.9
		c17.3,0,29.6-5.7,29.6-17.2c0-8.2-6.8-16.5-28.1-16.5h-40.4V291.7z M460.9,361.5h41.9c21,0,33.6-7,33.6-18.5
		c0-10.5-12.6-17.4-33.8-17.4h-41.8V361.5z"/>
</g>
<path fill="#FF3808" d="M133,226.5c0,0,13.5-0.8,23.8-1.8c6.5-0.6,26.1-3.3,26.1-3.3s-0.3-1.9-0.6-4.5c-0.5-4.2-4.6-12.6-14.8-11.3
	c-6.8,0.8-12.1,5.2-11.5,11.2c0.1,1.4,0.3,2.4,0.4,3.5c0,0-3.1,0.4-4.1,0.5c-8.8,0.9-19.6,1.4-19.6,1.4L133,226.5z"/>
<g>
	<path fill="#FDD000" d="M335.8,224.5c-0.6-0.8-2-0.4-2.5-0.3c-5.3,1.2-9.4,3.6-14.8,3.4l-0.3,0.3l-9.2-0.1
		c-13.1-1.5-26-4.6-38.2-8.7c-14.6-3.6-27.9-8.8-43.5-10c-7.7-1.1-16.2,0.7-21.9,6.1c-6.2,7.2-13.6,14.4-22.1,19.6
		c-1,0.4-2.5,0.5-3.3-0.3c-0.5-2,1.6-3.6,1.9-5.6c0.6-2.3,1.4-4.9,1.3-7.4l-28.2,3c-0.3,1.1-0.7,2.2-1.1,3.3c-0.6,1.7-0.4,3-0.1,5
		c-0.4,0.2,0.2,0.8-0.4,0.8c-0.1,4,5.9,1.9,8.1,4.6c0.5,0.7,1.2,1.4,1.2,2c0.8,0.8,0.6,1.9,0.5,2.8c-1.2,1.9-3.2,3.6-5.4,5.1
		c-1.6,1.7-5.1,6-7.1,12.2c-5.1,8.9-10.4,17.8-10.4,26.6c0,10.1,8.2,18.3,18.3,18.3c2,0,3.9-0.3,5.6-0.9c1.3,2.3,2.3,4.6,3.8,6.7
		l-0.1,0.2c1.1,1.4,1.9,2.9,3.3,4.1l0.1-0.1c15.7,15.3,37.1,25,51.6,41.2c3.5,3.9,6.8,8.2,9.8,12l-0.1,0.1
		c4.9,6.6,9.5,13.4,13.5,20.3c1.8,3.2,3.6,7.6,7,10.6c2.3-1.2,0.6-3.9,0.5-5.7c0.1-0.4-0.9-0.6-0.3-1.1c-1.3-2.9-2.3-6.3-3.4-9.5
		c-0.2-0.5-0.2-1.1-0.7-1.5c-1.2-4-2.8-7.7-4.2-11.8c-3.1-6.7-5.4-13.4-9.5-19.9l0.2-0.1c-3.6-6.6-9.7-12.7-16.5-17.6
		c-5.3-2.6-9.7-6.4-12.6-10.8l0.1-0.2c-4.8-6.6-8.6-13.6-12.5-20.5c-1.5-3.5-2.5-7.2-4.5-10.5c-3.5-5.5-12.9-8.1-13.4-14.8
		c1.1-7.4,4.6-14.1,9-20.5c8.6-12.1,23.9-18.3,40.1-17.4c16.4-0.8,32.2,5.9,50.8,6.8c9.7,0.7,20-1,29-3.8c2.5-0.8,5.1-1.9,7.5-2.3
		v0.1c7.3-2.7,15.1-6.4,21.6-11.4C335.7,226.6,336.1,225.5,335.8,224.5z"/>
</g>
<g>
	
		<rect x="144.6" y="246.2" transform="matrix(0.1611 0.9869 -0.9869 0.1611 367.0244 62.5478)" fill="#FF3808" width="4.3" height="2"/>
</g>
<g>
	
		<rect x="136.5" y="254.7" transform="matrix(0.8269 0.5623 -0.5623 0.8269 167.797 -33.6976)" fill="#FF3808" width="4.3" height="2"/>
</g>
<g>
	
		<rect x="135.3" y="266.4" transform="matrix(0.2954 0.9554 -0.9554 0.2954 352.6481 59.024)" fill="#FF3808" width="2" height="4.3"/>
</g>
<path fill="#FF3808" d="M179.5,233.7c-0.1,0.1-6.5,13.8-23.8,17.1c-1.2,1.6-2.7,4.3-3.4,5.5c23.1-2,31.4-19.8,31.7-20.5L179.5,233.7
	z"/>
<text transform="matrix(0.9126 0.4089 -0.4089 0.9126 142.4032 266.1422)" fill="#FF3808" font-family="'Arial-Black'" font-size="18.2984">B</text>
</svg>