<?xml version="1.0" encoding="utf-8"?>
<!-- Generator: Adobe Illustrator 18.0.0, SVG Export Plug-In . SVG Version: 6.00 Build 0)  -->
<!DOCTYPE svg PUBLIC "-//W3C//DTD SVG 1.1//EN" "http://www.w3.org/Graphics/SVG/1.1/DTD/svg11.dtd">
<svg version="1.1" id="Layer_1" xmlns="http://www.w3.org/2000/svg" xmlns:xlink="http://www.w3.org/1999/xlink" x="0px" y="0px"
	 viewBox="0 0 281.3 277.3" enable-background="new 0 0 281.3 277.3" xml:space="preserve">
<g>
	<path fill="#FDD000" d="M154.5,88.3c2.2,2.9-0.7,5.5-1.6,8.1c-9.2,13.8-12.4,29.5-18.5,44.3c-0.5,0.5-1.4,0.7-2,0.5
		c-1.6-1.2-1.6-3.1-1.4-4.8c1.2-16,5.5-31.1,12.3-45.4c1.6-2.3,4.3-4.9,7.8-4.4C152.3,86.9,153.5,87.4,154.5,88.3"/>
	<path fill="#FDD000" d="M178.6,92.5c1.2,5.3-2.6,9.6-4.3,14.3c-8.9,17.9-19.7,35.3-25,54.4c-0.3,0.6-0.6,1.4-1.3,1.7
		c-0.8,0.2-1.4-0.2-1.6-0.7c-1.8-7.6,0.3-15.5,2.2-22.7c5.1-16,11.3-32.4,19.9-47.3c1-0.8,1.2-1.4,2.4-1.8
		C174,90.2,177,90.4,178.6,92.5"/>
	<path fill="#FDD000" d="M204.6,93.5c2.4,1.8,1.2,5.2,0.2,7.4c-10.5,23.2-27.5,43.2-34.5,67.6c-1.9,5.2-3.2,10.5-4.8,15.7
		c-0.3,0.9-1.7,1-2.6,0.7c-0.9-2.2-0.7-5-0.7-7.4c2.2-19.6,6.9-38.6,16.4-55.6c4.3-8.5,8.5-16.2,13.1-24.5c1.3-2.4,3.4-4.5,6.6-5.2
		C200.6,92,202.9,92.6,204.6,93.5"/>
	<path fill="#FDD000" d="M233.3,94.7c1.7,2.8,0.1,5.9-0.7,8.6c-6.7,18.7-19.1,34.1-29.2,51.1c-8.6,14-14.2,29.5-19.9,44.6
		c-2,4.6-2.7,9.6-5.1,13.9c-0.2,0.5-0.8,0.2-1.2,0.3c-1.5-1.2-1.3-3-1.6-4.6c1.1-19,8.5-36.1,15.3-53.3c8.6-19.1,20.1-37.3,28-57.1
		c1.1-2.5,3.2-5.5,6.6-6.5C228.8,91.3,231.3,92.5,233.3,94.7"/>
</g>
<path fill="#FF3808" d="M57,67.5c0,0,13.5-0.8,23.8-1.8c6.5-0.6,26.1-3.3,26.1-3.3s-0.3-1.9-0.6-4.5c-0.5-4.2-4.6-12.6-14.8-11.3
	c-6.8,0.8-12.1,5.2-11.5,11.2c0.1,1.4,0.3,2.4,0.4,3.5c0,0-3.1,0.4-4.1,0.5c-8.8,0.9-19.6,1.4-19.6,1.4L57,67.5z"/>
<g>
	<path fill="#FDD000" d="M259.8,65.5c-0.6-0.8-2-0.4-2.5-0.3c-5.3,1.2-9.4,3.6-14.8,3.4l-0.3,0.3l-9.2-0.1
		c-13.1-1.5-26-4.6-38.2-8.7c-14.6-3.6-27.9-8.8-43.5-10c-7.7-1.1-16.2,0.7-21.9,6.1c-6.2,7.2-13.6,14.4-22.1,19.6
		c-1,0.4-2.5,0.5-3.3-0.3c-0.5-2,1.6-3.6,1.9-5.6c0.6-2.3,1.4-4.9,1.3-7.4l-28.2,3c-0.3,1.1-0.7,2.2-1.1,3.3c-0.6,1.7-0.4,3-0.1,5
		c-0.4,0.2,0.2,0.8-0.4,0.8c-0.1,4,5.9,1.9,8.1,4.6c0.5,0.7,1.2,1.4,1.2,2c0.8,0.8,0.6,1.9,0.5,2.8C86,86,84,87.6,81.8,89.2
		c-1.6,1.7-5.1,6-7.1,12.2c-5.1,8.9-10.4,17.8-10.4,26.6c0,10.1,8.2,18.3,18.3,18.3c2,0,3.9-0.3,5.6-0.9c1.3,2.3,2.3,4.6,3.8,6.7
		l-0.1,0.2c1.1,1.4,1.9,2.9,3.3,4.1l0.1-0.1c15.7,15.3,37.1,25,51.6,41.2c3.5,3.9,6.8,8.2,9.8,12l-0.1,0.1
		c4.9,6.6,9.5,13.4,13.5,20.3c1.8,3.2,3.6,7.6,7,10.6c2.3-1.2,0.6-3.9,0.5-5.7c0.1-0.4-0.9-0.6-0.3-1.1c-1.3-2.9-2.3-6.3-3.4-9.5
		c-0.2-0.5-0.2-1.1-0.7-1.5c-1.2-4-2.8-7.7-4.2-11.8c-3.1-6.7-5.4-13.4-9.5-19.9l0.2-0.1c-3.6-6.6-9.7-12.7-16.5-17.6
		c-5.3-2.6-9.7-6.4-12.6-10.8l0.1-0.2c-4.8-6.6-8.6-13.6-12.5-20.5c-1.5-3.5-2.5-7.2-4.5-10.5c-3.5-5.5-12.9-8.1-13.4-14.8
		c1.1-7.4,4.6-14.1,9-20.5c8.6-12.1,23.9-18.3,40.1-17.4c16.4-0.8,32.2,5.9,50.8,6.8c9.7,0.7,20-1,29-3.8c2.5-0.8,5.1-1.9,7.5-2.3
		v0.1c7.3-2.7,15.1-6.4,21.6-11.4C259.7,67.6,260.1,66.5,259.8,65.5z"/>
</g>
<g>
	
		<rect x="68.6" y="87.2" transform="matrix(0.1611 0.9869 -0.9869 0.1611 146.3433 4.1677)" fill="#FF3808" width="4.3" height="2"/>
</g>
<g>
	<rect x="60.5" y="95.7" transform="matrix(0.8269 0.5623 -0.5623 0.8269 65.2407 -18.48)" fill="#FF3808" width="4.3" height="2"/>
</g>
<g>
	
		<rect x="59.3" y="107.4" transform="matrix(0.2954 0.9554 -0.9554 0.2954 147.1884 19.5949)" fill="#FF3808" width="2" height="4.3"/>
</g>
<path fill="#FF3808" d="M103.5,74.7c-0.1,0.1-6.5,13.8-23.8,17.1c-1.2,1.6-2.7,4.3-3.4,5.5c23.1-2,31.4-19.8,31.7-20.5L103.5,74.7z"
	/>
<text transform="matrix(0.9126 0.4089 -0.4089 0.9126 66.4032 107.1422)" fill="#FF3808" font-family="'Arial-Black'" font-size="18.2984">B</text>
</svg>
